<?xml version="1.0" encoding="UTF-8"?>
<!DOCTYPE svg PUBLIC "-//W3C//DTD SVG 1.1//EN" "http://www.w3.org/Graphics/SVG/1.1/DTD/svg11.dtd">
<svg xmlns="http://www.w3.org/2000/svg" version="1.1" width="416px" height="416px" style="shape-rendering:geometricPrecision; text-rendering:geometricPrecision; image-rendering:optimizeQuality; fill-rule:evenodd; clip-rule:evenodd" xmlns:xlink="http://www.w3.org/1999/xlink">
<g><path style="opacity:1" fill="#000000" d="M -0.5,-0.5 C 138.167,-0.5 276.833,-0.5 415.5,-0.5C 415.5,138.167 415.5,276.833 415.5,415.5C 276.833,415.5 138.167,415.5 -0.5,415.5C -0.5,276.833 -0.5,138.167 -0.5,-0.5 Z"/></g>
<g><path style="opacity:1" fill="#4b4b4b" d="M 262.5,105.5 C 255.978,105.177 249.645,105.51 243.5,106.5C 242.957,106.44 242.624,106.107 242.5,105.5C 249.322,104.182 255.989,104.182 262.5,105.5 Z"/></g>
<g><path style="opacity:1" fill="#cbcbcb" d="M 262.5,105.5 C 267.122,105.156 271.455,105.823 275.5,107.5C 265.009,106.348 254.676,106.348 244.5,107.5C 243.833,107.5 243.5,107.167 243.5,106.5C 249.645,105.51 255.978,105.177 262.5,105.5 Z"/></g>
<g><path style="opacity:1" fill="#fcfcfc" d="M 275.5,107.5 C 299.215,112.943 317.049,126.277 329,147.5C 343.806,181.822 338.973,212.989 314.5,241C 303.866,250.982 291.533,257.815 277.5,261.5C 255.56,263.351 233.56,264.018 211.5,263.5C 211.333,222.499 211.5,181.499 212,140.5C 228.627,147.019 240.294,142.019 247,125.5C 248.051,119.206 247.217,113.206 244.5,107.5C 254.676,106.348 265.009,106.348 275.5,107.5 Z"/></g>
<g><path style="opacity:1" fill="#f7f7f7" d="M 219.5,108.5 C 230.826,107.327 235.992,112.327 235,123.5C 231.517,130.224 226.017,132.724 218.5,131C 210.261,123.018 210.594,115.518 219.5,108.5 Z"/></g>
<g><path style="opacity:1" fill="#606060" d="M 145.5,113.5 C 126.833,113.5 108.167,113.5 89.5,113.5C 89.5,164.833 89.5,216.167 89.5,267.5C 88.5011,216.003 88.1678,164.336 88.5,112.5C 107.674,112.17 126.674,112.503 145.5,113.5 Z"/></g>
<g><path style="opacity:1" fill="#fcfcfc" d="M 145.5,113.5 C 178.606,117.675 190.773,136.009 182,168.5C 178.553,175.614 173.386,181.114 166.5,185C 193.231,192.606 203.398,210.106 197,237.5C 190.401,254.759 177.901,264.593 159.5,267C 136.169,267.5 112.836,267.667 89.5,267.5C 89.5,216.167 89.5,164.833 89.5,113.5C 108.167,113.5 126.833,113.5 145.5,113.5 Z"/></g>
<g><path style="opacity:1" fill="#070707" d="M 144.5,133.5 C 157.925,138.002 163.425,147.335 161,161.5C 158.803,167.85 154.97,172.85 149.5,176.5C 143.989,178.21 138.323,178.877 132.5,178.5C 120.87,175.108 114.87,167.275 114.5,155C 114.698,144.424 119.698,137.258 129.5,133.5C 134.48,132.426 139.48,132.426 144.5,133.5 Z"/></g>
<g><path style="opacity:1" fill="#3e3e3e" d="M 144.5,133.5 C 139.48,132.426 134.48,132.426 129.5,133.5C 131.848,132.048 134.514,131.382 137.5,131.5C 140.205,131.316 142.538,131.983 144.5,133.5 Z"/></g>
<g><path style="opacity:1" fill="#262626" d="M 258.5,138.5 C 255.167,138.5 251.833,138.5 248.5,138.5C 248.5,169.167 248.5,199.833 248.5,230.5C 251.833,230.5 255.167,230.5 258.5,230.5C 255.038,231.482 251.371,231.815 247.5,231.5C 247.5,200.167 247.5,168.833 247.5,137.5C 251.371,137.185 255.038,137.518 258.5,138.5 Z"/></g>
<g><path style="opacity:1" fill="#010101" d="M 258.5,138.5 C 284.139,142.65 297.139,157.817 297.5,184C 297.909,204.526 288.909,219.193 270.5,228C 266.622,229.47 262.622,230.303 258.5,230.5C 255.167,230.5 251.833,230.5 248.5,230.5C 248.5,199.833 248.5,169.167 248.5,138.5C 251.833,138.5 255.167,138.5 258.5,138.5 Z"/></g>
<g><path style="opacity:1" fill="#f7f7f7" d="M 132.5,144.5 C 143.831,142.68 149.331,147.347 149,158.5C 145.916,165.955 140.416,168.455 132.5,166C 126.823,162.364 124.99,157.197 127,150.5C 128.36,147.977 130.193,145.977 132.5,144.5 Z"/></g>
<g><path style="opacity:1" fill="#b3b3b3" d="M 149.5,176.5 C 148.942,177.79 147.942,178.623 146.5,179C 141.648,179.815 136.981,179.648 132.5,178.5C 138.323,178.877 143.989,178.21 149.5,176.5 Z"/></g>
<g><path style="opacity:1" fill="#3b3b3b" d="M 136.5,196.5 C 138.81,195.836 141.31,195.503 144,195.5C 147.805,195.304 151.305,195.97 154.5,197.5C 148.536,196.693 142.536,196.36 136.5,196.5 Z"/></g>
<g><path style="opacity:1" fill="#030303" d="M 136.5,196.5 C 142.536,196.36 148.536,196.693 154.5,197.5C 174.716,205.611 180.216,219.611 171,239.5C 160.118,252.235 146.618,256.069 130.5,251C 111.132,240.356 106.965,225.522 118,206.5C 122.848,200.661 129.014,197.327 136.5,196.5 Z"/></g>
<g><path style="opacity:1" fill="#3d3d3d" d="M 277.5,261.5 C 274.132,263.059 270.465,263.892 266.5,264C 247.995,264.829 229.662,264.662 211.5,263.5C 233.56,264.018 255.56,263.351 277.5,261.5 Z"/></g>
<g><path style="opacity:1" fill="#efefef" d="M 130.5,285.5 C 132.719,287.065 133.052,289.065 131.5,291.5C 134.464,294.759 134.131,297.593 130.5,300C 127.518,300.498 124.518,300.665 121.5,300.5C 121.5,295.5 121.5,290.5 121.5,285.5C 124.5,285.5 127.5,285.5 130.5,285.5 Z"/></g>
<g><path style="opacity:1" fill="#8b8b8b" d="M 141.5,285.5 C 140.5,285.5 139.5,285.5 138.5,285.5C 138.5,290.5 138.5,295.5 138.5,300.5C 137.512,295.36 137.179,290.026 137.5,284.5C 139.099,284.232 140.432,284.566 141.5,285.5 Z"/></g>
<g><path style="opacity:1" fill="#f3f3f3" d="M 141.5,285.5 C 141.5,287.167 141.5,288.833 141.5,290.5C 143.833,290.5 146.167,290.5 148.5,290.5C 149.163,288.958 149.83,287.291 150.5,285.5C 151.494,290.456 151.827,295.456 151.5,300.5C 150.5,300.5 149.5,300.5 148.5,300.5C 148.5,298.167 148.5,295.833 148.5,293.5C 146.167,293.5 143.833,293.5 141.5,293.5C 141.5,295.833 141.5,298.167 141.5,300.5C 140.5,300.5 139.5,300.5 138.5,300.5C 138.5,295.5 138.5,290.5 138.5,285.5C 139.5,285.5 140.5,285.5 141.5,285.5 Z"/></g>
<g><path style="opacity:1" fill="#aeaeae" d="M 151.5,300.5 C 151.827,295.456 151.494,290.456 150.5,285.5C 149.83,287.291 149.163,288.958 148.5,290.5C 148.5,288.5 148.5,286.5 148.5,284.5C 149.833,284.5 151.167,284.5 152.5,284.5C 152.821,290.026 152.488,295.36 151.5,300.5 Z"/></g>
<g><path style="opacity:1" fill="#e2e2e2" d="M 163.5,284.5 C 164.978,284.238 166.311,284.571 167.5,285.5C 169.5,290.167 171.5,294.833 173.5,299.5C 171.37,300.777 169.704,300.277 168.5,298C 165.331,297.003 162.664,297.67 160.5,300C 159.167,300.667 157.833,300.667 156.5,300C 158.933,294.863 161.266,289.696 163.5,284.5 Z"/></g>
<g><path style="opacity:1" fill="#ececec" d="M 178.5,284.5 C 181.518,284.335 184.518,284.502 187.5,285C 190.122,288.13 190.122,291.297 187.5,294.5C 188.833,296.167 190.167,297.833 191.5,299.5C 190.277,300.614 188.944,300.781 187.5,300C 183.822,292.908 181.822,293.075 181.5,300.5C 180.5,300.5 179.5,300.5 178.5,300.5C 178.5,295.167 178.5,289.833 178.5,284.5 Z"/></g>
<g><path style="opacity:1" fill="#e7e7e7" d="M 202.5,284.5 C 204.144,284.286 205.644,284.62 207,285.5C 209.41,290.314 211.244,295.314 212.5,300.5C 210.01,299.575 207.51,298.575 205,297.5C 203.833,297.667 202.667,297.833 201.5,298C 200.296,300.277 198.63,300.777 196.5,299.5C 198.79,294.591 200.79,289.591 202.5,284.5 Z"/></g>
<g><path style="opacity:1" fill="#f9f9f9" d="M 217.5,285.5 C 221.226,285.177 224.893,285.511 228.5,286.5C 227.311,287.429 225.978,287.762 224.5,287.5C 224.5,291.833 224.5,296.167 224.5,300.5C 223.5,300.5 222.5,300.5 221.5,300.5C 221.5,296.167 221.5,291.833 221.5,287.5C 219.517,287.843 218.183,287.176 217.5,285.5 Z"/></g>
<g><path style="opacity:1" fill="#ededed" d="M 252.5,285.5 C 256.82,288.977 257.653,293.31 255,298.5C 251.417,300.29 247.584,300.957 243.5,300.5C 243.5,295.5 243.5,290.5 243.5,285.5C 246.5,285.5 249.5,285.5 252.5,285.5 Z"/></g>
<g><path style="opacity:1" fill="#e2e2e2" d="M 261.5,284.5 C 263.5,284.5 265.5,284.5 267.5,284.5C 266.658,289.787 266.324,295.12 266.5,300.5C 264.833,300.5 263.167,300.5 261.5,300.5C 262.833,295.167 262.833,289.833 261.5,284.5 Z"/></g>
<g><path style="opacity:1" fill="#e3e3e3" d="M 275.5,284.5 C 278.665,283.964 281.331,284.797 283.5,287C 282.975,287.692 282.308,288.192 281.5,288.5C 279.929,287.691 278.262,287.357 276.5,287.5C 276.33,288.822 276.663,289.989 277.5,291C 284.246,291.2 285.913,294.034 282.5,299.5C 279.897,300.562 277.23,300.728 274.5,300C 273.643,299.311 272.977,298.478 272.5,297.5C 275.167,297.167 277.833,296.833 280.5,296.5C 277.841,295.188 275.341,293.521 273,291.5C 272.162,288.519 272.995,286.186 275.5,284.5 Z"/></g>
<g><path style="opacity:1" fill="#e8e8e8" d="M 289.5,284.5 C 290.5,284.5 291.5,284.5 292.5,284.5C 292.338,286.527 292.505,288.527 293,290.5C 294.833,288.667 296.667,286.833 298.5,285C 300.167,284.333 301.833,284.333 303.5,285C 301.167,287.333 298.833,289.667 296.5,292C 299.069,294.479 301.402,297.146 303.5,300C 302.167,300.667 300.833,300.667 299.5,300C 297.667,298.167 295.833,296.333 294,294.5C 292.681,296.25 292.181,298.25 292.5,300.5C 291.5,300.5 290.5,300.5 289.5,300.5C 289.5,295.167 289.5,289.833 289.5,284.5 Z"/></g>
<g><path style="opacity:1" fill="#8d8d8d" d="M 130.5,285.5 C 127.5,285.5 124.5,285.5 121.5,285.5C 121.5,290.5 121.5,295.5 121.5,300.5C 120.512,295.36 120.179,290.026 120.5,284.5C 124.042,284.187 127.375,284.521 130.5,285.5 Z"/></g>
<g><path style="opacity:1" fill="#8d8d8d" d="M 252.5,285.5 C 249.5,285.5 246.5,285.5 243.5,285.5C 243.5,290.5 243.5,295.5 243.5,300.5C 242.512,295.36 242.179,290.026 242.5,284.5C 246.042,284.187 249.375,284.521 252.5,285.5 Z"/></g>
<g><path style="opacity:1" fill="#272727" d="M 124.5,287.5 C 126.665,287.116 128.332,287.783 129.5,289.5C 127.955,290.452 126.288,290.785 124.5,290.5C 124.5,289.5 124.5,288.5 124.5,287.5 Z"/></g>
<g><path style="opacity:1" fill="#1c1c1c" d="M 185.5,288.5 C 186.833,289.167 186.833,289.833 185.5,290.5C 181.5,289.833 181.5,289.167 185.5,288.5 Z"/></g>
<g><path style="opacity:1" fill="#8c8c8c" d="M 217.5,285.5 C 221.298,284.517 225.298,284.183 229.5,284.5C 229.5,285.833 229.5,287.167 229.5,288.5C 228.167,288.5 226.833,288.5 225.5,288.5C 225.817,292.702 225.483,296.702 224.5,300.5C 224.5,296.167 224.5,291.833 224.5,287.5C 225.978,287.762 227.311,287.429 228.5,286.5C 224.893,285.511 221.226,285.177 217.5,285.5 Z"/></g>
<g><path style="opacity:1" fill="#111111" d="M 246.5,287.5 C 250.819,286.854 252.819,288.687 252.5,293C 252.57,296.992 250.57,298.492 246.5,297.5C 246.5,294.167 246.5,290.833 246.5,287.5 Z"/></g>
<g><path style="opacity:1" fill="#737373" d="M 185.5,288.5 C 181.5,289.167 181.5,289.833 185.5,290.5C 184.432,291.434 183.099,291.768 181.5,291.5C 181.5,290.167 181.5,288.833 181.5,287.5C 183.099,287.232 184.432,287.566 185.5,288.5 Z"/></g>
<g><path style="opacity:1" fill="#1a1a1a" d="M 164.5,290.5 C 167.3,292.476 166.967,293.309 163.5,293C 164.252,292.329 164.586,291.496 164.5,290.5 Z"/></g>
<g><path style="opacity:1" fill="#5b5b5b" d="M 204.5,289.5 C 205.339,290.641 206.006,291.974 206.5,293.5C 205.167,294.833 203.833,294.833 202.5,293.5C 203.18,292.14 203.847,290.807 204.5,289.5 Z"/></g>
<g><path style="opacity:1" fill="#1f1f1f" d="M 124.5,293.5 C 126.167,293.5 127.833,293.5 129.5,293.5C 129.5,294.833 129.5,296.167 129.5,297.5C 127.833,297.5 126.167,297.5 124.5,297.5C 124.5,296.167 124.5,294.833 124.5,293.5 Z"/></g>
<g><path style="opacity:1" fill="#b5b5b5" d="M 243.5,312.5 C 244.376,312.369 245.043,312.702 245.5,313.5C 246.214,315.811 247.214,317.978 248.5,320C 247.17,319.923 245.836,319.423 244.5,318.5C 243.328,318.919 242.328,319.585 241.5,320.5C 241.167,320.167 240.833,319.833 240.5,319.5C 241.702,317.22 242.702,314.886 243.5,312.5 Z"/></g>
<g><path style="opacity:1" fill="#b5b5b5" d="M 307.5,312.5 C 308.376,312.369 309.043,312.702 309.5,313.5C 310.214,315.811 311.214,317.978 312.5,320C 311.17,319.923 309.836,319.423 308.5,318.5C 307.328,318.919 306.328,319.585 305.5,320.5C 305.167,320.167 304.833,319.833 304.5,319.5C 305.702,317.22 306.702,314.886 307.5,312.5 Z"/></g>
<g><path style="opacity:1" fill="#a6a6a6" d="M 96.5,313.5 C 98.2884,312.378 100.288,312.211 102.5,313C 101.004,315.201 100.004,317.701 99.5,320.5C 99.0615,317.705 98.0615,315.372 96.5,313.5 Z"/></g>
<g><path style="opacity:1" fill="#d2d2d2" d="M 183.5,312.5 C 184.239,312.369 184.906,312.536 185.5,313C 184.652,315.671 184.319,318.171 184.5,320.5C 183.52,317.914 183.187,315.247 183.5,312.5 Z"/></g>
<g><path style="opacity:1" fill="#b4b4b4" d="M 255.5,312.5 C 257.129,313.625 258.629,314.959 260,316.5C 260.219,315.062 260.719,313.729 261.5,312.5C 263.33,321.228 261.83,322.228 257,315.5C 256.667,317.167 256.333,318.833 256,320.5C 255.503,317.854 255.336,315.187 255.5,312.5 Z"/></g>
<g><path style="opacity:1" fill="#a5a5a5" d="M 85.5,312.5 C 89.9707,312.672 90.3041,313.506 86.5,315C 89.0352,315.928 90.0352,317.762 89.5,320.5C 87.712,320.785 86.0453,320.452 84.5,319.5C 85.6869,319.446 87.0202,319.113 88.5,318.5C 84.8027,317.715 83.8027,315.715 85.5,312.5 Z"/></g>
<g><path style="opacity:1" fill="#5c5c5c" d="M 127.5,312.5 C 128.167,312.5 128.5,312.833 128.5,313.5C 128.217,316.315 127.217,316.815 125.5,315C 126.056,313.989 126.722,313.156 127.5,312.5 Z"/></g>
<g><path style="opacity:1" fill="#b9b9b9" d="M 137.5,312.5 C 139.288,312.215 140.955,312.548 142.5,313.5C 141.624,314.251 140.624,314.751 139.5,315C 142.028,316.017 142.028,317.184 139.5,318.5C 140.376,319.251 141.376,319.751 142.5,320C 140.866,320.494 139.199,320.66 137.5,320.5C 137.5,317.833 137.5,315.167 137.5,312.5 Z"/></g>
<g><path style="opacity:1" fill="#c9c9c9" d="M 193.5,312.5 C 199.324,312.347 199.657,313.013 194.5,314.5C 198.5,315.833 198.5,317.167 194.5,318.5C 199.657,319.987 199.324,320.653 193.5,320.5C 193.5,317.833 193.5,315.167 193.5,312.5 Z"/></g>
<g><path style="opacity:1" fill="#c9c9c9" d="M 292.5,312.5 C 298.324,312.347 298.657,313.013 293.5,314.5C 297.5,315.833 297.5,317.167 293.5,318.5C 298.657,319.987 298.324,320.653 292.5,320.5C 292.5,317.833 292.5,315.167 292.5,312.5 Z"/></g>
<g><path style="opacity:1" fill="#5c5c5c" d="M 322.5,312.5 C 323.167,312.5 323.5,312.833 323.5,313.5C 323.217,316.315 322.217,316.815 320.5,315C 321.056,313.989 321.722,313.156 322.5,312.5 Z"/></g>
<g><path style="opacity:1" fill="#c1c1c1" d="M 332.5,312.5 C 334.417,313.909 336.25,315.576 338,317.5C 338.333,315.833 338.667,314.167 339,312.5C 339.818,315.227 339.652,317.894 338.5,320.5C 337.108,319.395 335.941,318.061 335,316.5C 334.781,317.938 334.281,319.271 333.5,320.5C 332.52,317.914 332.187,315.247 332.5,312.5 Z"/></g>
<g><path style="opacity:1" fill="#ababab" d="M 205.5,312.5 C 207.067,313.681 207.901,315.347 208,317.5C 209.145,311.76 210.645,311.427 212.5,316.5C 213.167,315.167 213.833,313.833 214.5,312.5C 215.319,315.404 214.653,318.071 212.5,320.5C 211.667,319.5 210.833,318.5 210,317.5C 209.751,318.624 209.251,319.624 208.5,320.5C 206.337,318.353 205.337,315.686 205.5,312.5 Z"/></g>
<g><path style="opacity:1" fill="#b1b1b1" d="M 168.5,312.5 C 169.892,314.273 171.059,316.273 172,318.5C 172.473,316.221 173.473,314.221 175,312.5C 175.219,315.733 174.052,318.399 171.5,320.5C 169.377,318.255 168.377,315.588 168.5,312.5 Z"/></g>
<g><path style="opacity:1" fill="#b6b6b6" d="M 127.5,312.5 C 126.722,313.156 126.056,313.989 125.5,315C 127.217,316.815 128.217,316.315 128.5,313.5C 129.705,314.672 129.705,316.005 128.5,317.5C 130.416,321.522 129.749,321.522 126.5,317.5C 125.833,318.5 125.167,319.5 124.5,320.5C 123.52,317.914 123.187,315.247 123.5,312.5C 124.833,312.5 126.167,312.5 127.5,312.5 Z"/></g>
<g><path style="opacity:1" fill="#acacac" d="M 269.5,312.5 C 276.004,312.138 277.671,314.638 274.5,320C 272.866,320.494 271.199,320.66 269.5,320.5C 269.5,317.833 269.5,315.167 269.5,312.5 Z"/></g>
<g><path style="opacity:1" fill="#111111" d="M 271.5,314.5 C 272.5,314.5 273.5,314.5 274.5,314.5C 274.884,316.665 274.217,318.332 272.5,319.5C 271.548,317.955 271.215,316.288 271.5,314.5 Z"/></g>
<g><path style="opacity:1" fill="#b6b6b6" d="M 322.5,312.5 C 321.722,313.156 321.056,313.989 320.5,315C 322.217,316.815 323.217,316.315 323.5,313.5C 324.705,314.672 324.705,316.005 323.5,317.5C 325.416,321.522 324.749,321.522 321.5,317.5C 320.833,318.5 320.167,319.5 319.5,320.5C 318.52,317.914 318.187,315.247 318.5,312.5C 319.833,312.5 321.167,312.5 322.5,312.5 Z"/></g>
<g><path style="opacity:1" fill="#b3b3b3" d="M 110.5,312.5 C 114.459,311.578 116.792,313.078 117.5,317C 115.927,320.452 113.427,321.286 110,319.5C 109.297,317.071 109.463,314.738 110.5,312.5 Z"/></g>
<g><path style="opacity:1" fill="#111111" d="M 111.5,314.5 C 115.161,314.35 116.161,315.85 114.5,319C 110.707,319.487 109.707,317.987 111.5,314.5 Z"/></g>
<g><path style="opacity:1" fill="#878787" d="M 149.5,319.5 C 151.973,319.947 152.14,320.947 150,322.5C 149.517,321.552 149.351,320.552 149.5,319.5 Z"/></g>
</svg>
